HIERARCHY
ROOT Hips
{
  OFFSET 44.238 84.281 20.2574
  CHANNELS 6 Xposition Yposition Zposition Zrotation Xrotation Yrotation
  JOINT spine
  {
    OFFSET 0 5.95438 0.342407
    CHANNELS 3 Zrotation Xrotation Yrotation
    JOINT spine1
    {
      OFFSET 0 8.85602 0
      CHANNELS 3 Zrotation Xrotation Yrotation
      JOINT spine2
      {
        OFFSET 0 8.48567 0
        CHANNELS 3 Zrotation Xrotation Yrotation
        JOINT Neck
        {
          OFFSET 0 21.7863 1.0387
          CHANNELS 3 Zrotation Xrotation Yrotation
          JOINT Head
          {
            OFFSET 0 6.5822 0
            CHANNELS 3 Zrotation Xrotation Yrotation
            End Site
            {
              OFFSET 0 15.9326 -5.25436
            }
          }
        }
        JOINT RightShoulder
        {
          OFFSET -3.57307 9.16386 -0.497525
          CHANNELS 3 Zrotation Xrotation Yrotation
          JOINT RightArm
          {
            OFFSET 0 12.0192 0
            CHANNELS 3 Zrotation Xrotation Yrotation
            JOINT RightArmRoll
            {
              OFFSET 0 6.06755 0
              CHANNELS 3 Zrotation Xrotation Yrotation
              JOINT RightForeArm
              {
                OFFSET 0 17.6726 0
                CHANNELS 3 Zrotation Xrotation Yrotation
                JOINT RightForeArmRoll
                {
                  OFFSET 0 6.80872 0
                  CHANNELS 3 Zrotation Xrotation Yrotation
                  JOINT RightHand
                  {
                    OFFSET 0 13.6636 0
                    CHANNELS 3 Zrotation Xrotation Yrotation
                    End Site
                    {
                      OFFSET 0 0 0
                    }
                  }
                }
              }
            }
          }
        }
        JOINT LeftShoulder
        {
          OFFSET 3.57307 9.16386 -0.497525
          CHANNELS 3 Zrotation Xrotation Yrotation
          JOINT LeftArm
          {
            OFFSET 0 12.0192 0
            CHANNELS 3 Zrotation Xrotation Yrotation
            JOINT LeftArmRoll
            {
              OFFSET 0 6.06755 0
              CHANNELS 3 Zrotation Xrotation Yrotation
              JOINT LeftForeArm
              {
                OFFSET 0 17.6726 0
                CHANNELS 3 Zrotation Xrotation Yrotation
                JOINT LeftForeArmRoll
                {
                  OFFSET 0 6.80872 0
                  CHANNELS 3 Zrotation Xrotation Yrotation
                  JOINT LeftHand
                  {
                    OFFSET 0 13.6636 0
                    CHANNELS 3 Zrotation Xrotation Yrotation
                    End Site
                    {
                      OFFSET 0 0 0
                    }
                  }
                }
              }
            }
          }
        }
      }
    }
  }
  JOINT RightUpLeg
  {
    OFFSET -5.27774 -0.967797 -0.811858
    CHANNELS 3 Zrotation Xrotation Yrotation
    JOINT RightUpLegRoll
    {
      OFFSET 0 16.0214 0
      CHANNELS 3 Zrotation Xrotation Yrotation
      JOINT RightLeg
      {
        OFFSET 0 -19.8401 0
        CHANNELS 3 Zrotation Xrotation Yrotation
        JOINT RightLegRoll
        {
          OFFSET 0 19.905 0
          CHANNELS 3 Zrotation Xrotation Yrotation
          JOINT RightFoot
          {
            OFFSET 0 16.5675 0
            CHANNELS 3 Zrotation Xrotation Yrotation
            JOINT RightToeBase
            {
              OFFSET 0 13.8496 0
              CHANNELS 3 Zrotation Xrotation Yrotation
              End Site
              {
                OFFSET 0.00587033 6.70727 -0.773117
              }
            }
          }
        }
      }
    }
  }
  JOINT LeftUpLeg
  {
    OFFSET 5.27774 -0.967797 -0.811858
    CHANNELS 3 Zrotation Xrotation Yrotation
    JOINT LeftUpLegRoll
    {
      OFFSET 0 16.0215 0
      CHANNELS 3 Zrotation Xrotation Yrotation
      JOINT LeftLeg
      {
        OFFSET 0 19.84 0
        CHANNELS 3 Zrotation Xrotation Yrotation
        JOINT LeftLegRoll
        {
          OFFSET 0 20.089 0
          CHANNELS 3 Zrotation Xrotation Yrotation
          JOINT LeftFoot
          {
            OFFSET 0 16.3835 0
            CHANNELS 3 Zrotation Xrotation Yrotation
            JOINT LeftToeBase
            {
              OFFSET 0 13.8496 0
              CHANNELS 3 Zrotation Xrotation Yrotation
              End Site
              {
                OFFSET -0.0263083 6.70727 -0.773117
              }
            }
          }
        }
      }
    }
  }
}
MOTION
Frames: 9
Frame Time: 0.00208333
44.2888 83.474 12.9891 3.81544 -5.71569 67.7688 -0.124704 -0.333166 -0.00859225 -0.249776 3.33648 0.00228699 -0.250198 4.98153 0.00342903 -7.65433 -0.0905393 0.855673 15.6408 4.10508 -0.163515 62.9992 4.9197 2.37212 97.0812 36.6376 -4.21741 4.2208e-031 1.0138e-014 -2.38542e-015 -3.65383 -0.0343548 -1.99301 -3.4112e-007 3.70609e-005 -3.0116 8.03012 -4.95137 0.697654 -66.2519 -6.50719 4.33134 -107.119 54.6042 27.984 4.77083e-015 -9.54166e-015 -0 21.2479 84.4259 -16.5335 -2.96735e-006 8.88831e-006 2.99999 -8.03004 -4.95107 -0.697575 -179.744 4.98802 -1.04198 180 7.01523e-015 178.824 -176.257 19.7548 178.37 -4.10198e-006 -7.35052e-006 0.100927 -18.0385 66.9204 18.6807 8.12703 25.2332 -3.48371 -179.377 6.5569 -0.566967 4.54188e-006 -4.6773e-006 -1.10552 -3.05716 -19.2787 0.10654 3.49746e-007 1.50563e-005 -0.288856 19.8058 69.4354 -20.8124 -8.13649 25.2326 3.48772 
44.2892 83.4721 12.987 3.83442 -5.70807 67.8239 -0.125569 -0.330829 -0.0085917 -0.251509 3.34115 0.00241017 -0.251935 4.9862 0.00360215 -7.65438 -0.0655956 0.857518 15.6186 4.0443 -0.156108 63.0197 4.884 2.34837 97.2151 36.6365 -4.33977 -8.49677e-031 1.53064e-014 3.18055e-015 -3.65636 -0.0343894 -1.99301 -3.4112e-007 3.70609e-005 -3.0116 8.03012 -4.95137 0.697654 -66.258 -6.50061 4.32802 -107.146 54.6053 28.0086 -4.77083e-015 -8.74653e-015 -9.54166e-015 21.0976 84.3837 -16.3824 -2.96735e-006 8.88831e-006 2.99999 -8.03004 -4.95107 -0.697575 -179.753 4.98185 -1.05194 180 7.01523e-015 178.825 -176.238 19.7225 178.369 -4.10198e-006 -7.35052e-006 0.0989542 -18.0329 66.9105 18.6729 8.12703 25.2332 -3.48371 -179.373 6.52737 -0.571577 4.54188e-006 -4.6773e-006 -1.10551 -3.05902 -19.268 0.106282 3.49746e-007 1.50563e-005 -0.288879 19.8115 69.4414 -20.8182 -8.13649 25.2326 3.48772 
44.3009 83.4855 13.0051 3.85364 -5.7005 67.8788 -0.12642 -0.328366 -0.00859078 -0.253213 3.34608 0.00253279 -0.253642 4.99113 0.00377387 -7.65636 -0.0405854 0.859748 15.5983 3.98305 -0.148593 63.0401 4.84617 2.32343 97.3498 36.6381 -4.46358 1.90833e-014 1.25234e-014 7.95139e-016 -3.65908 -0.0344409 -1.99301 -3.4112e-007 3.70609e-005 -3.0116 8.03012 -4.95137 0.697654 -66.2648 -6.49348 4.32444 -107.17 54.607 28.0303 2.20695e-030 7.95139e-015 -1.59028e-014 20.9584 84.344 -16.2423 -2.96735e-006 8.88831e-006 2.99999 -8.03004 -4.95107 -0.697575 -179.763 4.97643 -1.06236 180 7.01523e-015 178.825 -176.217 19.6913 178.368 -4.10198e-006 -7.35052e-006 0.096993 -18.0274 66.9006 18.6652 8.12703 25.2332 -3.48371 -179.37 6.49725 -0.576256 4.54188e-006 -4.6773e-006 -1.10548 -3.06104 -19.2569 0.10601 3.49746e-007 1.50563e-005 -0.288913 19.8173 69.4474 -20.8241 -8.13649 25.2326 3.48772 
44.2721 83.4886 13.0127 3.87304 -5.69297 67.9334 -0.127259 -0.325815 -0.00858959 -0.254896 3.35118 0.00265502 -0.255329 4.99623 0.00394461 -7.65971 -0.0155285 0.862248 15.5793 3.92145 -0.141001 63.0604 4.80683 2.29764 97.4851 36.6414 -4.58842 2.22639e-014 1.11319e-014 -0 -3.66193 -0.0345042 -1.99302 -3.4112e-007 3.70609e-005 -3.0116 8.03012 -4.95137 0.697654 -66.272 -6.48597 4.32066 -107.191 54.609 28.0501 -3.18055e-015 4.77083e-015 3.18055e-015 20.8272 84.306 -16.1102 -2.96735e-006 8.88831e-006 2.99999 -8.03004 -4.95107 -0.697575 -179.772 4.97153 -1.0731 180 7.01523e-015 178.825 -176.196 19.6609 178.366 -4.10198e-006 -7.35052e-006 0.0950402 -18.0219 66.8907 18.6574 8.12703 25.2332 -3.48371 -179.366 6.4667 -0.580984 4.54188e-006 -4.6773e-006 -1.10546 -3.06316 -19.2454 0.105729 3.49746e-007 1.50563e-005 -0.288954 19.8231 69.4535 -20.8301 -8.13649 25.2326 3.48772 
44.2864 83.4844 13.0398 3.89253 -5.68544 67.988 -0.128093 -0.323214 -0.00858825 -0.256567 3.35639 0.00277703 -0.257004 5.00143 0.00411479 -7.66384 0.00955488 0.864902 15.561 3.85967 -0.133366 63.0806 4.76663 2.27139 97.6208 36.6458 -4.71386 -6.36111e-015 4.37326e-015 -3.97569e-015 -3.66486 -0.0345743 -1.99303 -3.4112e-007 3.70609e-005 -3.0116 8.03012 -4.95137 0.697654 -66.2795 -6.47823 4.31678 -107.212 54.6113 28.0687 -9.54166e-015 -4.77083e-015 -9.54166e-015 20.7012 84.2691 -15.9834 -2.96735e-006 8.88831e-006 2.99999 -8.03004 -4.95107 -0.697575 -179.781 4.96692 -1.08404 180 7.01524e-015 178.826 -176.175 19.6309 178.365 -4.10198e-006 -7.35052e-006 0.0930922 -18.0165 66.8807 18.6497 8.12703 25.2332 -3.48371 -179.362 6.43592 -0.58574 4.54188e-006 -4.6773e-006 -1.10542 -3.06534 -19.2338 0.105442 3.49746e-007 1.50563e-005 -0.289 19.829 69.4596 -20.836 -8.13649 25.2326 3.48772 
44.3349 83.5046 13.0943 3.91204 -5.6779 68.0424 -0.128925 -0.3206 -0.00858688 -0.258235 3.36162 0.00289898 -0.258676 5.00666 0.00428484 -7.66816 0.0346449 0.867595 15.543 3.79783 -0.125722 63.1008 4.72621 2.24502 97.7566 36.6503 -4.83946 -9.37955e-032 1.35174e-014 3.97569e-016 -3.66782 -0.034646 -1.99303 -3.4112e-007 3.70609e-005 -3.0116 8.03012 -4.95137 0.697654 -66.2871 -6.47044 4.31287 -107.232 54.6136 28.087 -1.90833e-014 -2.62396e-014 -1.27222e-014 20.5776 84.2324 -15.859 -2.96735e-006 8.88831e-006 2.99999 -8.03004 -4.95107 -0.697575 -179.79 4.96239 -1.09501 180 7.01524e-015 178.826 -176.154 19.6011 178.363 -4.10198e-006 -7.35052e-006 0.0911454 -18.0111 66.8708 18.6419 8.12703 25.2332 -3.48371 -179.359 6.40507 -0.590502 4.54188e-006 -4.6773e-006 -1.10539 -3.06754 -19.2222 0.105154 3.49745e-007 1.50563e-005 -0.289047 19.8348 69.4656 -20.8419 -8.13649 25.2326 3.48772 
44.3322 83.5013 13.105 3.93151 -5.6703 68.097 -0.129761 -0.318011 -0.00858558 -0.259909 3.36679 0.00302105 -0.260354 5.01184 0.00445517 -7.6721 0.0597216 0.870211 15.5246 3.73609 -0.118101 63.121 4.68622 2.21889 97.8922 36.6542 -4.96478 1.90833e-014 2.18663e-014 3.18055e-015 -3.67073 -0.0347144 -1.99304 -3.4112e-007 3.70609e-005 -3.0116 8.03012 -4.95137 0.697654 -66.2945 -6.46276 4.30901 -107.253 54.6158 28.1059 -3.02153e-014 -2.78299e-014 -6.36111e-015 20.454 84.1952 -15.7345 -2.96735e-006 8.88831e-006 2.99999 -8.03004 -4.95107 -0.697575 -179.799 4.95771 -1.1059 180 7.01524e-015 178.826 -176.133 19.571 178.361 -4.10198e-006 -7.35052e-006 0.0891961 -18.0057 66.8608 18.6342 8.12703 25.2332 -3.48371 -179.355 6.37435 -0.59525 4.54188e-006 -4.6773e-006 -1.10536 -3.0697 -19.2106 0.104868 3.49745e-007 1.50563e-005 -0.289092 19.8407 69.4717 -20.8479 -8.13649 25.2326 3.48772 
44.3322 83.4906 13.0992 3.95084 -5.66263 68.1517 -0.130603 -0.315485 -0.00858446 -0.261598 3.37185 0.00314339 -0.262047 5.01689 0.0046262 -7.67507 0.084765 0.872634 15.5053 3.6746 -0.110536 63.1412 4.6473 2.19336 98.0275 36.6565 -5.08937 9.54166e-015 1.03368e-014 6.36111e-015 -3.67355 -0.0347744 -1.99304 -3.4112e-007 3.70609e-005 -3.0116 8.03012 -4.95137 0.697654 -66.3016 -6.45536 4.30529 -107.275 54.6177 28.1262 1.11319e-014 1.27222e-014 -6.36111e-015 20.3278 84.1566 -15.6075 -2.96735e-006 8.88831e-006 2.99999 -8.03004 -4.95107 -0.697575 -179.809 4.95266 -1.11655 180 7.01524e-015 178.827 -176.112 19.5404 178.36 -4.10198e-006 -7.35052e-006 0.0872409 -18.0003 66.8509 18.6264 8.12703 25.2332 -3.48371 -179.352 6.34392 -0.599962 4.54188e-006 -4.6773e-006 -1.10534 -3.07179 -19.1992 0.10459 3.49746e-007 1.50563e-005 -0.289131 19.8465 69.4778 -20.8538 -8.13649 25.2326 3.48772 
44.3442 83.4939 13.1315 3.96998 -5.65486 68.2066 -0.131458 -0.31306 -0.00858366 -0.263311 3.3767 0.00326619 -0.263763 5.02174 0.00479836 -7.67649 0.109755 0.87475 15.4845 3.61349 -0.103061 63.1614 4.61009 2.1688 98.162 36.6564 -5.21278 6.36111e-015 -1.39149e-015 3.97569e-016 -3.67621 -0.0348208 -1.99305 -3.4112e-007 3.70609e-005 -3.0116 8.03012 -4.95137 0.697654 -66.3081 -6.44839 4.30179 -107.3 54.6192 28.1488 -7.95139e-015 7.95139e-016 3.18055e-015 20.1968 84.116 -15.4757 -2.96735e-006 8.88831e-006 2.99999 -8.03004 -4.95107 -0.697575 -179.818 4.94701 -1.12683 180 7.01524e-015 178.827 -176.092 19.5089 178.359 -4.10198e-006 -7.35052e-006 0.0852762 -17.9948 66.841 18.6187 8.12703 25.2332 -3.48371 -179.348 6.31397 -0.604618 4.54188e-006 -4.6773e-006 -1.10532 -3.07376 -19.1882 0.104323 3.49746e-007 1.50563e-005 -0.289162 19.8523 69.4838 -20.8597 -8.13649 25.2326 3.48772 
